<svg width="22" height="18" viewBox="0 0 22 18" fill="none" xmlns="http://www.w3.org/2000/svg">
<path d="M15.2398 4.76018C15.7977 5.31741 16.2402 5.97914 16.5422 6.70753C16.8441 7.43592 16.9995 8.21668 16.9995 9.00518C16.9995 9.79367 16.8441 10.5744 16.5422 11.3028C16.2402 12.0312 15.7977 12.6929 15.2398 13.2502M6.75982 13.2402C6.20196 12.6829 5.75941 12.0212 5.45746 11.2928C5.15551 10.5644 5.0001 9.78367 5.0001 8.99518C5.0001 8.20668 5.15551 7.42592 5.45746 6.69753C5.75941 5.96915 6.20196 5.30741 6.75982 4.75018M18.0698 1.93018C19.9445 3.80545 20.9977 6.34853 20.9977 9.00018C20.9977 11.6518 19.9445 14.1949 18.0698 16.0702M3.92982 16.0702C2.05511 14.1949 1.00195 11.6518 1.00195 9.00018C1.00195 6.34853 2.05511 3.80545 3.92982 1.93018" stroke="#800E80" stroke-width="2" stroke-linecap="round" stroke-linejoin="round"/>
</svg>
