<svg width="453" height="339" viewBox="0 0 453 339" fill="none" xmlns="http://www.w3.org/2000/svg">
<path d="M248.125 262.5C245.927 266.288 242.773 269.433 238.978 271.619C235.183 273.805 230.88 274.956 226.5 274.956C222.12 274.956 217.817 273.805 214.022 271.619C210.227 269.433 207.073 266.288 204.875 262.5" stroke="#B6B4B4" stroke-width="6" stroke-linecap="round" stroke-linejoin="round"/>
<path d="M309.375 162.5C303.814 142.143 301.163 121.101 301.5 100" stroke="#B6B4B4" stroke-width="6" stroke-linecap="round" stroke-linejoin="round"/>
<path d="M154.75 78.25C152.578 85.2951 151.483 92.6278 151.5 100C151.5 187.5 114 212.5 114 212.5H289" stroke="#B6B4B4" stroke-width="6" stroke-linecap="round" stroke-linejoin="round"/>
<path d="M301.5 100C301.52 86.4133 297.849 73.0763 290.879 61.4136C283.909 49.7509 273.902 40.2007 261.927 33.783C249.951 27.3652 236.457 24.3211 222.886 24.9758C209.315 25.6305 196.177 29.9593 184.875 37.5" stroke="#B6B4B4" stroke-width="6" stroke-linecap="round" stroke-linejoin="round"/>
<path d="M89 12.5L364 287.5" stroke="#B6B4B4" stroke-width="6" stroke-linecap="round" stroke-linejoin="round"/>
<path d="M14.592 320.552C14.432 319.048 13.904 317.88 13.008 317.048C12.128 316.216 10.992 315.8 9.6 315.8C8.752 315.8 7.952 315.984 7.2 316.352C6.464 316.704 5.816 317.216 5.256 317.888C4.696 318.56 4.256 319.368 3.936 320.312C3.616 321.256 3.456 322.32 3.456 323.504C3.456 325.008 3.744 326.336 4.32 327.488C4.896 328.64 5.672 329.536 6.648 330.176C7.624 330.816 8.704 331.136 9.888 331.136C10.928 331.136 11.952 330.904 12.96 330.44C13.968 329.96 14.792 329.272 15.432 328.376L16.056 328.88C15.368 329.824 14.624 330.552 13.824 331.064C13.024 331.576 12.224 331.92 11.424 332.096C10.64 332.288 9.92 332.384 9.264 332.384C8.064 332.384 6.96 332.168 5.952 331.736C4.96 331.304 4.096 330.704 3.36 329.936C2.64 329.152 2.08 328.248 1.68 327.224C1.296 326.184 1.104 325.064 1.104 323.864C1.104 322.728 1.272 321.624 1.608 320.552C1.96 319.48 2.48 318.512 3.168 317.648C3.856 316.784 4.72 316.096 5.76 315.584C6.816 315.072 8.04 314.816 9.432 314.816C10.328 314.816 11.176 314.936 11.976 315.176C12.776 315.416 13.544 315.784 14.28 316.28L14.16 314.984H15.456V320.552H14.592ZM17.5973 331.28C18.0933 331.28 18.4373 331.16 18.6293 330.92C18.8213 330.664 18.9333 330.32 18.9653 329.888C18.9973 329.44 19.0133 328.928 19.0133 328.352V317C19.0133 316.744 19.0133 316.504 19.0133 316.28C19.0293 316.04 19.0533 315.76 19.0853 315.44C18.7973 315.456 18.5093 315.472 18.2213 315.488C17.9493 315.504 17.6693 315.52 17.3813 315.536V314.528C18.0853 314.528 18.6293 314.496 19.0133 314.432C19.4133 314.368 19.7093 314.288 19.9013 314.192C20.1093 314.096 20.2693 313.992 20.3813 313.88H21.0773L21.1013 329.456C21.1013 329.776 21.0933 330.064 21.0773 330.32C21.0613 330.56 21.0293 330.816 20.9813 331.088C21.2373 331.072 21.4853 331.064 21.7253 331.064C21.9813 331.048 22.2373 331.032 22.4933 331.016V332H17.5973V331.28ZM24.3763 331.28C24.8723 331.28 25.2163 331.16 25.4083 330.92C25.6003 330.664 25.7123 330.32 25.7443 329.888C25.7763 329.44 25.7923 328.928 25.7923 328.352V322.88C25.7923 322.624 25.8003 322.384 25.8163 322.16C25.8323 321.92 25.8563 321.64 25.8883 321.32C25.6003 321.336 25.3123 321.352 25.0243 321.368C24.7523 321.384 24.4723 321.4 24.1843 321.416V320.408C24.8883 320.408 25.4323 320.376 25.8163 320.312C26.2003 320.248 26.4883 320.168 26.6803 320.072C26.8883 319.976 27.0483 319.872 27.1603 319.76H27.8563V329.456C27.8563 329.776 27.8483 330.064 27.8323 330.32C27.8323 330.56 27.8083 330.816 27.7603 331.088C28.0163 331.072 28.2643 331.064 28.5043 331.064C28.7603 331.048 29.0163 331.032 29.2723 331.016V332H24.3763V331.28ZM26.7043 317.384C26.3683 317.384 26.0723 317.248 25.8163 316.976C25.5603 316.704 25.4323 316.368 25.4323 315.968C25.4323 315.568 25.5603 315.232 25.8163 314.96C26.0883 314.672 26.3923 314.528 26.7283 314.528C27.0963 314.528 27.4003 314.672 27.6403 314.96C27.8963 315.232 28.0243 315.568 28.0243 315.968C28.0243 316.368 27.8883 316.704 27.6163 316.976C27.3603 317.248 27.0563 317.384 26.7043 317.384ZM36.9823 332.384C35.9103 332.384 34.9183 332.144 34.0063 331.664C33.1103 331.168 32.3903 330.464 31.8463 329.552C31.3183 328.624 31.0543 327.512 31.0543 326.216C31.0543 325.384 31.2063 324.576 31.5103 323.792C31.8143 323.008 32.2383 322.304 32.7823 321.68C33.3423 321.04 34.0063 320.536 34.7743 320.168C35.5423 319.8 36.3903 319.616 37.3183 319.616C38.2143 319.616 38.9903 319.752 39.6463 320.024C40.3183 320.296 40.8383 320.656 41.2063 321.104C41.5743 321.552 41.7583 322.04 41.7583 322.568C41.7583 322.92 41.6623 323.224 41.4703 323.48C41.2783 323.72 40.9983 323.84 40.6303 323.84C40.2303 323.856 39.9423 323.736 39.7663 323.48C39.6063 323.208 39.5263 322.968 39.5263 322.76C39.5263 322.6 39.5503 322.44 39.5983 322.28C39.6463 322.104 39.7423 321.944 39.8863 321.8C39.7583 321.416 39.5343 321.136 39.2143 320.96C38.8943 320.768 38.5583 320.648 38.2063 320.6C37.8703 320.536 37.5903 320.504 37.3663 320.504C36.2783 320.504 35.3583 320.944 34.6063 321.824C33.8703 322.688 33.5023 323.952 33.5023 325.616C33.5023 326.688 33.6703 327.64 34.0063 328.472C34.3583 329.304 34.8463 329.96 35.4703 330.44C36.0943 330.904 36.8143 331.136 37.6303 331.136C38.3823 331.136 39.1023 330.936 39.7903 330.536C40.4783 330.136 41.0143 329.648 41.3983 329.072L42.0223 329.552C41.6063 330.224 41.1023 330.768 40.5103 331.184C39.9343 331.6 39.3343 331.904 38.7103 332.096C38.1023 332.288 37.5263 332.384 36.9823 332.384ZM43.6838 332V331.28C44.1797 331.28 44.5158 331.16 44.6918 330.92C44.8838 330.664 44.9958 330.32 45.0278 329.888C45.0598 329.44 45.0758 328.928 45.0758 328.352L45.0998 317C45.0998 316.744 45.0998 316.504 45.0998 316.28C45.1158 316.04 45.1398 315.76 45.1718 315.44C44.8838 315.456 44.5958 315.472 44.3078 315.488C44.0358 315.504 43.7558 315.52 43.4678 315.536V314.528C44.1718 314.528 44.7158 314.496 45.0998 314.432C45.4838 314.368 45.7718 314.288 45.9638 314.192C46.1718 314.096 46.3318 313.992 46.4438 313.88H47.1398V325.232H48.0998L51.0278 322.16C51.2998 321.888 51.5478 321.648 51.7718 321.44C51.9958 321.216 52.2198 321.032 52.4438 320.888L50.8118 320.96V320H55.1797V320.72C54.6358 320.768 54.1238 320.944 53.6438 321.248C53.1798 321.536 52.7478 321.864 52.3478 322.232C51.9638 322.6 51.6278 322.936 51.3398 323.24L49.4678 325.208C49.7878 325.352 50.0598 325.536 50.2838 325.76C50.5078 325.984 50.7318 326.232 50.9558 326.504L52.6598 328.688C52.7398 328.784 52.8758 328.968 53.0678 329.24C53.2758 329.512 53.5158 329.808 53.7878 330.128C54.0758 330.448 54.3718 330.72 54.6758 330.944C54.9958 331.168 55.2918 331.28 55.5638 331.28V332H53.3798C52.9318 332 52.5078 331.768 52.1078 331.304C51.7078 330.84 51.2838 330.32 50.8358 329.744C50.4198 329.168 50.0438 328.648 49.7078 328.184C49.3878 327.704 49.0918 327.288 48.8198 326.936C48.5638 326.584 48.3318 326.312 48.1238 326.12L47.1398 326.168V329.456C47.1398 329.776 47.1318 330.064 47.1158 330.32C47.1158 330.56 47.0918 330.816 47.0438 331.088C47.2998 331.072 47.5558 331.064 47.8118 331.064C48.0678 331.048 48.3238 331.032 48.5798 331.016V332H43.6838ZM69.0471 332.384C67.9271 332.384 66.9111 332.128 65.9991 331.616C65.0871 331.088 64.3591 330.368 63.8151 329.456C63.2871 328.528 63.0231 327.472 63.0231 326.288C63.0231 325.024 63.2871 323.888 63.8151 322.88C64.3431 321.872 65.0631 321.08 65.9751 320.504C66.8871 319.912 67.9111 319.616 69.0471 319.616C70.1671 319.616 71.1831 319.888 72.0951 320.432C73.0071 320.96 73.7351 321.68 74.2791 322.592C74.8231 323.504 75.0951 324.544 75.0951 325.712C75.0951 326.944 74.8231 328.072 74.2791 329.096C73.7511 330.104 73.0311 330.904 72.1191 331.496C71.2071 332.088 70.1831 332.384 69.0471 332.384ZM69.2391 331.424C70.0871 331.424 70.7591 331.184 71.2551 330.704C71.7511 330.224 72.1031 329.6 72.3111 328.832C72.5351 328.064 72.6471 327.256 72.6471 326.408C72.6471 325.688 72.5751 324.984 72.4311 324.296C72.3031 323.592 72.0951 322.96 71.8071 322.4C71.5191 321.824 71.1431 321.368 70.6791 321.032C70.2311 320.696 69.6871 320.528 69.0471 320.528C68.2151 320.528 67.5351 320.768 67.0071 321.248C66.4791 321.728 66.0871 322.352 65.8311 323.12C65.5911 323.888 65.4711 324.712 65.4711 325.592C65.4711 326.584 65.6071 327.528 65.8791 328.424C66.1511 329.304 66.5671 330.024 67.1271 330.584C67.6871 331.144 68.3911 331.424 69.2391 331.424ZM77.1341 332V331.28C77.6301 331.28 77.9741 331.16 78.1661 330.92C78.3581 330.664 78.4701 330.32 78.5021 329.888C78.5341 329.44 78.5501 328.928 78.5501 328.352L78.5741 322.88C78.5741 322.624 78.5741 322.368 78.5741 322.112C78.5901 321.856 78.6221 321.592 78.6701 321.32C78.3821 321.336 78.0941 321.352 77.8061 321.368C77.5341 321.384 77.2541 321.4 76.9661 321.416V320.408C77.6701 320.408 78.1981 320.376 78.5501 320.312C78.9181 320.248 79.1901 320.168 79.3661 320.072C79.5421 319.976 79.6861 319.872 79.7981 319.76H80.4941C80.5101 319.872 80.5181 320 80.5181 320.144C80.5341 320.288 80.5501 320.448 80.5661 320.624C80.5821 320.8 80.5901 321 80.5901 321.224C80.9421 320.92 81.3261 320.648 81.7421 320.408C82.1741 320.168 82.6221 319.976 83.0861 319.832C83.5661 319.688 84.0381 319.616 84.5021 319.616C85.8941 319.616 86.9101 320.056 87.5501 320.936C88.1901 321.8 88.5101 323.152 88.5101 324.992V329.456C88.5101 329.776 88.5021 330.064 88.4861 330.32C88.4861 330.56 88.4621 330.816 88.4141 331.088C88.6701 331.072 88.9181 331.064 89.1581 331.064C89.4141 331.048 89.6701 331.032 89.9261 331.016V332H85.0301V331.28C85.5261 331.28 85.8701 331.16 86.0621 330.92C86.2541 330.664 86.3661 330.32 86.3981 329.888C86.4301 329.44 86.4461 328.928 86.4461 328.352V324.992C86.4301 323.616 86.1981 322.576 85.7501 321.872C85.3181 321.168 84.6301 320.824 83.6861 320.84C83.1101 320.856 82.5421 321.008 81.9821 321.296C81.4381 321.584 80.9821 321.952 80.6141 322.4C80.6301 322.528 80.6381 322.672 80.6381 322.832C80.6381 322.992 80.6381 323.16 80.6381 323.336L80.6141 329.456C80.6141 329.776 80.6061 330.064 80.5901 330.32C80.5901 330.56 80.5661 330.816 80.5181 331.088C80.7741 331.072 81.0221 331.064 81.2621 331.064C81.5181 331.048 81.7741 331.032 82.0301 331.016V332H77.1341ZM105.313 332C105.265 331.728 105.233 331.488 105.217 331.28C105.201 331.072 105.177 330.856 105.145 330.632C104.601 331.176 104.009 331.608 103.369 331.928C102.745 332.232 102.081 332.384 101.377 332.384C100.161 332.384 99.2569 332.112 98.6649 331.568C98.0729 331.008 97.7769 330.328 97.7769 329.528C97.7769 328.792 98.0009 328.16 98.4489 327.632C98.9129 327.088 99.5049 326.648 100.225 326.312C100.961 325.96 101.753 325.704 102.601 325.544C103.465 325.368 104.297 325.288 105.097 325.304V323.816C105.097 323.256 105.049 322.728 104.953 322.232C104.857 321.736 104.649 321.328 104.329 321.008C104.009 320.688 103.497 320.52 102.793 320.504C102.329 320.488 101.849 320.576 101.353 320.768C100.873 320.96 100.521 321.288 100.297 321.752C100.425 321.88 100.505 322.032 100.537 322.208C100.585 322.368 100.609 322.52 100.609 322.664C100.609 322.856 100.529 323.08 100.369 323.336C100.209 323.576 99.9289 323.688 99.5289 323.672C99.1929 323.672 98.9369 323.56 98.7609 323.336C98.5849 323.096 98.4969 322.816 98.4969 322.496C98.4969 321.952 98.6969 321.464 99.0969 321.032C99.5129 320.6 100.081 320.256 100.801 320C101.521 319.744 102.337 319.616 103.249 319.616C104.593 319.616 105.585 319.976 106.225 320.696C106.865 321.4 107.177 322.52 107.161 324.056C107.161 324.648 107.161 325.248 107.161 325.856C107.161 326.448 107.153 327.048 107.137 327.656C107.137 328.248 107.137 328.848 107.137 329.456C107.137 329.712 107.129 329.968 107.113 330.224C107.097 330.48 107.073 330.768 107.041 331.088C107.329 331.072 107.609 331.056 107.881 331.04C108.169 331.024 108.457 331.008 108.745 330.992V332H105.313ZM105.097 326.12C104.553 326.136 103.977 326.208 103.369 326.336C102.777 326.448 102.225 326.624 101.713 326.864C101.217 327.104 100.809 327.424 100.489 327.824C100.185 328.208 100.041 328.68 100.057 329.24C100.089 329.832 100.281 330.28 100.633 330.584C101.001 330.872 101.433 331.016 101.929 331.016C102.585 331.016 103.153 330.896 103.633 330.656C104.129 330.4 104.617 330.048 105.097 329.6C105.081 329.424 105.073 329.232 105.073 329.024C105.073 328.816 105.073 328.6 105.073 328.376C105.073 328.296 105.073 328.04 105.073 327.608C105.089 327.176 105.097 326.68 105.097 326.12ZM116.697 332V331.28C117.193 331.28 117.537 331.16 117.729 330.92C117.921 330.664 118.033 330.32 118.065 329.888C118.097 329.44 118.113 328.928 118.113 328.352L118.137 322.88C118.137 322.624 118.137 322.368 118.137 322.112C118.153 321.856 118.185 321.592 118.233 321.32C117.945 321.336 117.657 321.352 117.369 321.368C117.097 321.384 116.817 321.4 116.529 321.416V320.408C117.233 320.408 117.761 320.376 118.113 320.312C118.481 320.248 118.753 320.168 118.929 320.072C119.105 319.976 119.249 319.872 119.361 319.76H120.057C120.073 319.872 120.081 320 120.081 320.144C120.097 320.288 120.113 320.448 120.129 320.624C120.145 320.8 120.153 321 120.153 321.224C120.505 320.92 120.889 320.648 121.305 320.408C121.737 320.168 122.185 319.976 122.649 319.832C123.129 319.688 123.601 319.616 124.065 319.616C125.457 319.616 126.473 320.056 127.113 320.936C127.753 321.8 128.073 323.152 128.073 324.992V329.456C128.073 329.776 128.065 330.064 128.049 330.32C128.049 330.56 128.025 330.816 127.977 331.088C128.233 331.072 128.481 331.064 128.721 331.064C128.977 331.048 129.233 331.032 129.489 331.016V332H124.593V331.28C125.089 331.28 125.433 331.16 125.625 330.92C125.817 330.664 125.929 330.32 125.961 329.888C125.993 329.44 126.009 328.928 126.009 328.352V324.992C125.993 323.616 125.761 322.576 125.313 321.872C124.881 321.168 124.193 320.824 123.249 320.84C122.673 320.856 122.105 321.008 121.545 321.296C121.001 321.584 120.545 321.952 120.177 322.4C120.193 322.528 120.201 322.672 120.201 322.832C120.201 322.992 120.201 323.16 120.201 323.336L120.177 329.456C120.177 329.776 120.169 330.064 120.153 330.32C120.153 330.56 120.129 330.816 120.081 331.088C120.337 331.072 120.585 331.064 120.825 331.064C121.081 331.048 121.337 331.032 121.593 331.016V332H116.697ZM137.227 332.384C136.107 332.384 135.091 332.128 134.179 331.616C133.267 331.088 132.539 330.368 131.995 329.456C131.467 328.528 131.203 327.472 131.203 326.288C131.203 325.024 131.467 323.888 131.995 322.88C132.523 321.872 133.243 321.08 134.155 320.504C135.067 319.912 136.091 319.616 137.227 319.616C138.347 319.616 139.363 319.888 140.275 320.432C141.187 320.96 141.915 321.68 142.459 322.592C143.003 323.504 143.275 324.544 143.275 325.712C143.275 326.944 143.003 328.072 142.459 329.096C141.931 330.104 141.211 330.904 140.299 331.496C139.387 332.088 138.363 332.384 137.227 332.384ZM137.419 331.424C138.267 331.424 138.939 331.184 139.435 330.704C139.931 330.224 140.283 329.6 140.491 328.832C140.715 328.064 140.827 327.256 140.827 326.408C140.827 325.688 140.755 324.984 140.611 324.296C140.483 323.592 140.275 322.96 139.987 322.4C139.699 321.824 139.323 321.368 138.859 321.032C138.411 320.696 137.867 320.528 137.227 320.528C136.395 320.528 135.715 320.768 135.187 321.248C134.659 321.728 134.267 322.352 134.011 323.12C133.771 323.888 133.651 324.712 133.651 325.592C133.651 326.584 133.787 327.528 134.059 328.424C134.331 329.304 134.747 330.024 135.307 330.584C135.867 331.144 136.571 331.424 137.419 331.424ZM149.826 332.384C149.458 332.384 149.082 332.328 148.698 332.216C148.314 332.12 147.954 331.92 147.618 331.616C147.298 331.312 147.042 330.872 146.85 330.296C146.658 329.704 146.562 328.928 146.562 327.968L146.61 321.008L144.762 321.032V320C145.178 319.984 145.602 319.832 146.034 319.544C146.466 319.24 146.85 318.832 147.186 318.32C147.538 317.808 147.778 317.248 147.906 316.64H148.722V320H152.754V320.936L148.722 320.984L148.674 327.656C148.674 328.376 148.73 328.992 148.842 329.504C148.97 330 149.17 330.376 149.442 330.632C149.714 330.888 150.066 331.016 150.498 331.016C150.946 331.016 151.362 330.888 151.746 330.632C152.146 330.376 152.498 330.024 152.802 329.576L153.45 330.104C153.098 330.632 152.746 331.048 152.394 331.352C152.058 331.656 151.73 331.88 151.41 332.024C151.09 332.184 150.794 332.28 150.522 332.312C150.25 332.36 150.018 332.384 149.826 332.384ZM154.595 331.28C155.091 331.28 155.435 331.16 155.627 330.92C155.819 330.664 155.931 330.32 155.963 329.888C155.995 329.44 156.011 328.928 156.011 328.352V322.88C156.011 322.624 156.019 322.384 156.035 322.16C156.051 321.92 156.075 321.64 156.107 321.32C155.819 321.336 155.531 321.352 155.243 321.368C154.971 321.384 154.691 321.4 154.403 321.416V320.408C155.107 320.408 155.651 320.376 156.035 320.312C156.419 320.248 156.707 320.168 156.899 320.072C157.107 319.976 157.267 319.872 157.379 319.76H158.075V329.456C158.075 329.776 158.067 330.064 158.051 330.32C158.051 330.56 158.027 330.816 157.979 331.088C158.235 331.072 158.483 331.064 158.723 331.064C158.979 331.048 159.235 331.032 159.491 331.016V332H154.595V331.28ZM156.923 317.384C156.587 317.384 156.291 317.248 156.035 316.976C155.779 316.704 155.651 316.368 155.651 315.968C155.651 315.568 155.779 315.232 156.035 314.96C156.307 314.672 156.611 314.528 156.947 314.528C157.315 314.528 157.619 314.672 157.859 314.96C158.115 315.232 158.243 315.568 158.243 315.968C158.243 316.368 158.107 316.704 157.835 316.976C157.579 317.248 157.275 317.384 156.923 317.384ZM161.489 332V331.28C161.985 331.28 162.329 331.16 162.521 330.92C162.713 330.664 162.825 330.32 162.857 329.888C162.889 329.44 162.905 328.928 162.905 328.352L162.857 321.032L160.889 321.08V320H162.857C162.857 318 163.337 316.464 164.297 315.392C165.273 314.304 166.657 313.76 168.449 313.76C169.281 313.76 170.033 313.848 170.705 314.024C171.393 314.2 171.945 314.448 172.361 314.768C172.777 315.088 172.985 315.456 172.985 315.872C172.985 316.176 172.897 316.44 172.721 316.664C172.545 316.888 172.289 317 171.953 317C171.553 317.016 171.273 316.904 171.113 316.664C170.953 316.408 170.873 316.184 170.873 315.992C170.873 315.88 170.881 315.768 170.897 315.656C170.913 315.544 170.945 315.44 170.993 315.344C170.721 315.136 170.385 314.976 169.985 314.864C169.601 314.736 169.153 314.672 168.641 314.672C167.921 314.672 167.281 314.832 166.721 315.152C166.161 315.472 165.721 315.96 165.401 316.616C165.081 317.272 164.921 318.104 164.921 319.112V320H170.417C170.785 320 171.097 319.992 171.353 319.976C171.625 319.944 171.841 319.912 172.001 319.88C172.161 319.832 172.257 319.792 172.289 319.76H172.985V329.456C172.985 329.776 172.977 330.064 172.961 330.32C172.961 330.56 172.937 330.816 172.889 331.088C173.145 331.072 173.393 331.064 173.633 331.064C173.889 331.048 174.145 331.032 174.401 331.016V332H169.505V331.28C170.001 331.28 170.345 331.16 170.537 330.92C170.729 330.664 170.841 330.32 170.873 329.888C170.905 329.44 170.921 328.928 170.921 328.352V322.4C170.921 322.144 170.929 321.904 170.945 321.68C170.961 321.44 170.985 321.16 171.017 320.84L164.921 320.984L164.945 329.48C164.945 329.8 164.937 330.08 164.921 330.32C164.921 330.56 164.897 330.816 164.849 331.088C165.105 331.072 165.353 331.064 165.593 331.064C165.849 331.048 166.105 331.032 166.361 331.016V332H161.489ZM182.154 332.384C181.082 332.384 180.09 332.144 179.178 331.664C178.282 331.168 177.562 330.464 177.018 329.552C176.49 328.624 176.226 327.512 176.226 326.216C176.226 325.384 176.378 324.576 176.682 323.792C176.986 323.008 177.41 322.304 177.954 321.68C178.514 321.04 179.178 320.536 179.946 320.168C180.714 319.8 181.562 319.616 182.49 319.616C183.386 319.616 184.162 319.752 184.818 320.024C185.49 320.296 186.01 320.656 186.378 321.104C186.746 321.552 186.93 322.04 186.93 322.568C186.93 322.92 186.834 323.224 186.642 323.48C186.45 323.72 186.17 323.84 185.802 323.84C185.402 323.856 185.114 323.736 184.938 323.48C184.778 323.208 184.698 322.968 184.698 322.76C184.698 322.6 184.722 322.44 184.77 322.28C184.818 322.104 184.914 321.944 185.058 321.8C184.93 321.416 184.706 321.136 184.386 320.96C184.066 320.768 183.73 320.648 183.378 320.6C183.042 320.536 182.762 320.504 182.538 320.504C181.45 320.504 180.53 320.944 179.778 321.824C179.042 322.688 178.674 323.952 178.674 325.616C178.674 326.688 178.842 327.64 179.178 328.472C179.53 329.304 180.018 329.96 180.642 330.44C181.266 330.904 181.986 331.136 182.802 331.136C183.554 331.136 184.274 330.936 184.962 330.536C185.65 330.136 186.186 329.648 186.57 329.072L187.194 329.552C186.778 330.224 186.274 330.768 185.682 331.184C185.106 331.6 184.506 331.904 183.882 332.096C183.274 332.288 182.698 332.384 182.154 332.384ZM196.321 332C196.273 331.728 196.241 331.488 196.225 331.28C196.209 331.072 196.185 330.856 196.153 330.632C195.609 331.176 195.017 331.608 194.377 331.928C193.753 332.232 193.089 332.384 192.385 332.384C191.169 332.384 190.265 332.112 189.673 331.568C189.081 331.008 188.785 330.328 188.785 329.528C188.785 328.792 189.009 328.16 189.457 327.632C189.921 327.088 190.513 326.648 191.233 326.312C191.969 325.96 192.761 325.704 193.609 325.544C194.473 325.368 195.305 325.288 196.105 325.304V323.816C196.105 323.256 196.057 322.728 195.961 322.232C195.865 321.736 195.657 321.328 195.337 321.008C195.017 320.688 194.505 320.52 193.801 320.504C193.337 320.488 192.857 320.576 192.361 320.768C191.881 320.96 191.529 321.288 191.305 321.752C191.433 321.88 191.513 322.032 191.545 322.208C191.593 322.368 191.617 322.52 191.617 322.664C191.617 322.856 191.537 323.08 191.377 323.336C191.217 323.576 190.937 323.688 190.537 323.672C190.201 323.672 189.945 323.56 189.769 323.336C189.593 323.096 189.505 322.816 189.505 322.496C189.505 321.952 189.705 321.464 190.105 321.032C190.521 320.6 191.089 320.256 191.809 320C192.529 319.744 193.345 319.616 194.257 319.616C195.601 319.616 196.593 319.976 197.233 320.696C197.873 321.4 198.185 322.52 198.169 324.056C198.169 324.648 198.169 325.248 198.169 325.856C198.169 326.448 198.161 327.048 198.145 327.656C198.145 328.248 198.145 328.848 198.145 329.456C198.145 329.712 198.137 329.968 198.121 330.224C198.105 330.48 198.081 330.768 198.049 331.088C198.337 331.072 198.617 331.056 198.889 331.04C199.177 331.024 199.465 331.008 199.753 330.992V332H196.321ZM196.105 326.12C195.561 326.136 194.985 326.208 194.377 326.336C193.785 326.448 193.233 326.624 192.721 326.864C192.225 327.104 191.817 327.424 191.497 327.824C191.193 328.208 191.049 328.68 191.065 329.24C191.097 329.832 191.289 330.28 191.641 330.584C192.009 330.872 192.441 331.016 192.937 331.016C193.593 331.016 194.161 330.896 194.641 330.656C195.137 330.4 195.625 330.048 196.105 329.6C196.089 329.424 196.081 329.232 196.081 329.024C196.081 328.816 196.081 328.6 196.081 328.376C196.081 328.296 196.081 328.04 196.081 327.608C196.097 327.176 196.105 326.68 196.105 326.12ZM205.748 332.384C205.38 332.384 205.004 332.328 204.62 332.216C204.236 332.12 203.876 331.92 203.54 331.616C203.22 331.312 202.964 330.872 202.772 330.296C202.58 329.704 202.484 328.928 202.484 327.968L202.532 321.008L200.684 321.032V320C201.1 319.984 201.524 319.832 201.956 319.544C202.388 319.24 202.772 318.832 203.108 318.32C203.46 317.808 203.7 317.248 203.828 316.64H204.644V320H208.676V320.936L204.644 320.984L204.596 327.656C204.596 328.376 204.652 328.992 204.764 329.504C204.892 330 205.092 330.376 205.364 330.632C205.636 330.888 205.988 331.016 206.42 331.016C206.868 331.016 207.284 330.888 207.668 330.632C208.068 330.376 208.42 330.024 208.724 329.576L209.372 330.104C209.02 330.632 208.668 331.048 208.316 331.352C207.98 331.656 207.652 331.88 207.332 332.024C207.012 332.184 206.716 332.28 206.444 332.312C206.172 332.36 205.94 332.384 205.748 332.384ZM210.517 331.28C211.013 331.28 211.357 331.16 211.549 330.92C211.741 330.664 211.853 330.32 211.885 329.888C211.917 329.44 211.933 328.928 211.933 328.352V322.88C211.933 322.624 211.941 322.384 211.957 322.16C211.973 321.92 211.997 321.64 212.029 321.32C211.741 321.336 211.453 321.352 211.165 321.368C210.893 321.384 210.613 321.4 210.325 321.416V320.408C211.029 320.408 211.573 320.376 211.957 320.312C212.341 320.248 212.629 320.168 212.821 320.072C213.029 319.976 213.189 319.872 213.301 319.76H213.997V329.456C213.997 329.776 213.989 330.064 213.973 330.32C213.973 330.56 213.949 330.816 213.901 331.088C214.157 331.072 214.405 331.064 214.645 331.064C214.901 331.048 215.157 331.032 215.413 331.016V332H210.517V331.28ZM212.845 317.384C212.509 317.384 212.213 317.248 211.957 316.976C211.701 316.704 211.573 316.368 211.573 315.968C211.573 315.568 211.701 315.232 211.957 314.96C212.229 314.672 212.533 314.528 212.869 314.528C213.237 314.528 213.541 314.672 213.781 314.96C214.037 315.232 214.165 315.568 214.165 315.968C214.165 316.368 214.029 316.704 213.757 316.976C213.501 317.248 213.197 317.384 212.845 317.384ZM223.219 332.384C222.099 332.384 221.083 332.128 220.171 331.616C219.259 331.088 218.531 330.368 217.987 329.456C217.459 328.528 217.195 327.472 217.195 326.288C217.195 325.024 217.459 323.888 217.987 322.88C218.515 321.872 219.235 321.08 220.147 320.504C221.059 319.912 222.083 319.616 223.219 319.616C224.339 319.616 225.355 319.888 226.267 320.432C227.179 320.96 227.907 321.68 228.451 322.592C228.995 323.504 229.267 324.544 229.267 325.712C229.267 326.944 228.995 328.072 228.451 329.096C227.923 330.104 227.203 330.904 226.291 331.496C225.379 332.088 224.355 332.384 223.219 332.384ZM223.411 331.424C224.259 331.424 224.931 331.184 225.427 330.704C225.923 330.224 226.275 329.6 226.483 328.832C226.707 328.064 226.819 327.256 226.819 326.408C226.819 325.688 226.747 324.984 226.603 324.296C226.475 323.592 226.267 322.96 225.979 322.4C225.691 321.824 225.315 321.368 224.851 321.032C224.403 320.696 223.859 320.528 223.219 320.528C222.387 320.528 221.707 320.768 221.179 321.248C220.651 321.728 220.259 322.352 220.003 323.12C219.763 323.888 219.643 324.712 219.643 325.592C219.643 326.584 219.779 327.528 220.051 328.424C220.323 329.304 220.739 330.024 221.299 330.584C221.859 331.144 222.563 331.424 223.411 331.424ZM231.306 332V331.28C231.802 331.28 232.146 331.16 232.338 330.92C232.53 330.664 232.642 330.32 232.674 329.888C232.706 329.44 232.722 328.928 232.722 328.352L232.746 322.88C232.746 322.624 232.746 322.368 232.746 322.112C232.762 321.856 232.794 321.592 232.842 321.32C232.554 321.336 232.266 321.352 231.978 321.368C231.706 321.384 231.426 321.4 231.138 321.416V320.408C231.842 320.408 232.37 320.376 232.722 320.312C233.09 320.248 233.362 320.168 233.538 320.072C233.714 319.976 233.858 319.872 233.97 319.76H234.666C234.682 319.872 234.69 320 234.69 320.144C234.706 320.288 234.722 320.448 234.738 320.624C234.754 320.8 234.762 321 234.762 321.224C235.114 320.92 235.498 320.648 235.914 320.408C236.346 320.168 236.794 319.976 237.258 319.832C237.738 319.688 238.21 319.616 238.674 319.616C240.066 319.616 241.082 320.056 241.722 320.936C242.362 321.8 242.682 323.152 242.682 324.992V329.456C242.682 329.776 242.674 330.064 242.658 330.32C242.658 330.56 242.634 330.816 242.586 331.088C242.842 331.072 243.09 331.064 243.33 331.064C243.586 331.048 243.842 331.032 244.098 331.016V332H239.202V331.28C239.698 331.28 240.042 331.16 240.234 330.92C240.426 330.664 240.538 330.32 240.57 329.888C240.602 329.44 240.618 328.928 240.618 328.352V324.992C240.602 323.616 240.37 322.576 239.922 321.872C239.49 321.168 238.802 320.824 237.858 320.84C237.282 320.856 236.714 321.008 236.154 321.296C235.61 321.584 235.154 321.952 234.786 322.4C234.802 322.528 234.81 322.672 234.81 322.832C234.81 322.992 234.81 323.16 234.81 323.336L234.786 329.456C234.786 329.776 234.778 330.064 234.762 330.32C234.762 330.56 234.738 330.816 234.69 331.088C234.946 331.072 235.194 331.064 235.434 331.064C235.69 331.048 235.946 331.032 236.202 331.016V332H231.306ZM256.701 332.384C256.333 332.384 255.957 332.328 255.573 332.216C255.189 332.12 254.829 331.92 254.493 331.616C254.173 331.312 253.917 330.872 253.725 330.296C253.533 329.704 253.437 328.928 253.437 327.968L253.485 321.008L251.637 321.032V320C252.053 319.984 252.477 319.832 252.909 319.544C253.341 319.24 253.725 318.832 254.061 318.32C254.413 317.808 254.653 317.248 254.781 316.64H255.597V320H259.629V320.936L255.597 320.984L255.549 327.656C255.549 328.376 255.605 328.992 255.717 329.504C255.845 330 256.045 330.376 256.317 330.632C256.589 330.888 256.941 331.016 257.373 331.016C257.821 331.016 258.237 330.888 258.621 330.632C259.021 330.376 259.373 330.024 259.677 329.576L260.325 330.104C259.973 330.632 259.621 331.048 259.269 331.352C258.933 331.656 258.605 331.88 258.285 332.024C257.965 332.184 257.669 332.28 257.397 332.312C257.125 332.36 256.893 332.384 256.701 332.384ZM267.422 332.384C266.302 332.384 265.286 332.128 264.374 331.616C263.462 331.088 262.734 330.368 262.19 329.456C261.662 328.528 261.398 327.472 261.398 326.288C261.398 325.024 261.662 323.888 262.19 322.88C262.718 321.872 263.438 321.08 264.35 320.504C265.262 319.912 266.286 319.616 267.422 319.616C268.542 319.616 269.558 319.888 270.47 320.432C271.382 320.96 272.11 321.68 272.654 322.592C273.198 323.504 273.47 324.544 273.47 325.712C273.47 326.944 273.198 328.072 272.654 329.096C272.126 330.104 271.406 330.904 270.494 331.496C269.582 332.088 268.558 332.384 267.422 332.384ZM267.614 331.424C268.462 331.424 269.134 331.184 269.63 330.704C270.126 330.224 270.478 329.6 270.686 328.832C270.91 328.064 271.022 327.256 271.022 326.408C271.022 325.688 270.95 324.984 270.806 324.296C270.678 323.592 270.47 322.96 270.182 322.4C269.894 321.824 269.518 321.368 269.054 321.032C268.606 320.696 268.062 320.528 267.422 320.528C266.59 320.528 265.91 320.768 265.382 321.248C264.854 321.728 264.462 322.352 264.206 323.12C263.966 323.888 263.846 324.712 263.846 325.592C263.846 326.584 263.982 327.528 264.254 328.424C264.526 329.304 264.942 330.024 265.502 330.584C266.062 331.144 266.766 331.424 267.614 331.424ZM286.374 332.072L282.942 324.248C282.686 323.64 282.486 323.12 282.342 322.688C282.198 322.256 282.094 321.896 282.03 321.608C281.982 321.32 281.95 321.088 281.934 320.912L280.902 320.984V320H285.318V320.72C284.838 320.72 284.526 320.848 284.382 321.104C284.254 321.344 284.238 321.672 284.334 322.088C284.43 322.488 284.574 322.92 284.766 323.384L286.614 327.608C286.742 327.88 286.862 328.168 286.974 328.472C287.102 328.76 287.222 329.064 287.334 329.384H287.358C287.438 329.144 287.526 328.888 287.622 328.616C287.734 328.344 287.83 328.08 287.91 327.824L289.83 322.568C289.958 322.184 290.094 321.848 290.238 321.56C290.382 321.272 290.486 321.056 290.55 320.912L289.014 320.984V320H292.806V320.72C292.454 320.72 292.158 320.84 291.918 321.08C291.678 321.32 291.446 321.68 291.222 322.16C291.014 322.64 290.766 323.24 290.478 323.96L287.334 332.072H286.374ZM293.931 331.28C294.427 331.28 294.771 331.16 294.963 330.92C295.155 330.664 295.267 330.32 295.299 329.888C295.331 329.44 295.347 328.928 295.347 328.352V322.88C295.347 322.624 295.355 322.384 295.371 322.16C295.387 321.92 295.411 321.64 295.443 321.32C295.155 321.336 294.867 321.352 294.579 321.368C294.307 321.384 294.027 321.4 293.739 321.416V320.408C294.443 320.408 294.987 320.376 295.371 320.312C295.755 320.248 296.043 320.168 296.235 320.072C296.443 319.976 296.603 319.872 296.715 319.76H297.411V329.456C297.411 329.776 297.403 330.064 297.387 330.32C297.387 330.56 297.363 330.816 297.315 331.088C297.571 331.072 297.819 331.064 298.059 331.064C298.315 331.048 298.571 331.032 298.827 331.016V332H293.931V331.28ZM296.259 317.384C295.923 317.384 295.627 317.248 295.371 316.976C295.115 316.704 294.987 316.368 294.987 315.968C294.987 315.568 295.115 315.232 295.371 314.96C295.643 314.672 295.947 314.528 296.283 314.528C296.651 314.528 296.955 314.672 297.195 314.96C297.451 315.232 297.579 315.568 297.579 315.968C297.579 316.368 297.443 316.704 297.171 316.976C296.915 317.248 296.611 317.384 296.259 317.384ZM306.489 332.384C305.385 332.384 304.385 332.128 303.489 331.616C302.609 331.088 301.913 330.352 301.401 329.408C300.889 328.448 300.633 327.32 300.633 326.024C300.633 324.904 300.881 323.856 301.377 322.88C301.889 321.904 302.601 321.12 303.513 320.528C304.425 319.92 305.481 319.616 306.681 319.616C307.353 319.616 307.977 319.728 308.553 319.952C309.145 320.16 309.665 320.488 310.113 320.936C310.561 321.368 310.913 321.92 311.169 322.592C311.425 323.248 311.553 324.024 311.553 324.92L303.105 325.064C303.105 326.28 303.233 327.352 303.489 328.28C303.761 329.192 304.193 329.904 304.785 330.416C305.377 330.912 306.137 331.16 307.065 331.16C307.561 331.16 308.065 331.072 308.577 330.896C309.105 330.72 309.593 330.48 310.041 330.176C310.489 329.872 310.849 329.536 311.121 329.168L311.697 329.648C311.265 330.32 310.745 330.856 310.137 331.256C309.529 331.656 308.905 331.944 308.265 332.12C307.625 332.296 307.033 332.384 306.489 332.384ZM303.177 324.056H309.297C309.297 323.48 309.209 322.928 309.033 322.4C308.873 321.856 308.601 321.416 308.217 321.08C307.833 320.728 307.329 320.552 306.705 320.552C305.777 320.552 305.001 320.832 304.377 321.392C303.769 321.936 303.369 322.824 303.177 324.056ZM317.723 332.072L314.579 322.856C314.467 322.52 314.363 322.232 314.267 321.992C314.187 321.752 314.123 321.544 314.075 321.368C314.027 321.192 313.987 321.04 313.955 320.912L312.683 320.984V320H317.771V320.72C317.051 320.736 316.651 320.984 316.571 321.464C316.507 321.928 316.603 322.544 316.859 323.312L317.963 326.672C318.091 327.056 318.219 327.448 318.347 327.848C318.475 328.232 318.603 328.616 318.731 329C318.875 328.568 319.019 328.136 319.163 327.704C319.323 327.256 319.475 326.808 319.619 326.36L321.755 320H322.739L325.163 326.984C325.291 327.336 325.419 327.696 325.547 328.064C325.675 328.432 325.803 328.8 325.931 329.168C326.059 328.816 326.179 328.472 326.291 328.136C326.419 327.784 326.539 327.432 326.651 327.08L328.235 322.52C328.347 322.2 328.459 321.896 328.571 321.608C328.683 321.32 328.811 321.088 328.955 320.912L327.563 320.984V320H331.739V320.72C331.323 320.736 330.979 320.792 330.707 320.888C330.451 320.984 330.235 321.112 330.059 321.272C329.883 321.432 329.739 321.624 329.627 321.848C329.515 322.072 329.411 322.328 329.315 322.616L325.859 332.072H324.899L322.619 325.52C322.523 325.232 322.427 324.952 322.331 324.68C322.235 324.392 322.139 324.112 322.043 323.84C321.947 323.552 321.851 323.272 321.755 323C321.659 323.272 321.563 323.552 321.467 323.84C321.371 324.112 321.275 324.392 321.179 324.68C321.083 324.952 320.987 325.232 320.891 325.52L318.635 332.072H317.723ZM346.415 332C346.367 331.728 346.335 331.488 346.319 331.28C346.303 331.072 346.279 330.856 346.247 330.632C345.703 331.176 345.111 331.608 344.471 331.928C343.847 332.232 343.183 332.384 342.479 332.384C341.263 332.384 340.359 332.112 339.767 331.568C339.175 331.008 338.879 330.328 338.879 329.528C338.879 328.792 339.103 328.16 339.551 327.632C340.015 327.088 340.607 326.648 341.327 326.312C342.063 325.96 342.855 325.704 343.703 325.544C344.567 325.368 345.399 325.288 346.199 325.304V323.816C346.199 323.256 346.151 322.728 346.055 322.232C345.959 321.736 345.751 321.328 345.431 321.008C345.111 320.688 344.599 320.52 343.895 320.504C343.431 320.488 342.951 320.576 342.455 320.768C341.975 320.96 341.623 321.288 341.399 321.752C341.527 321.88 341.607 322.032 341.639 322.208C341.687 322.368 341.711 322.52 341.711 322.664C341.711 322.856 341.631 323.08 341.471 323.336C341.311 323.576 341.031 323.688 340.631 323.672C340.295 323.672 340.039 323.56 339.863 323.336C339.687 323.096 339.599 322.816 339.599 322.496C339.599 321.952 339.799 321.464 340.199 321.032C340.615 320.6 341.183 320.256 341.903 320C342.623 319.744 343.439 319.616 344.351 319.616C345.695 319.616 346.687 319.976 347.327 320.696C347.967 321.4 348.279 322.52 348.263 324.056C348.263 324.648 348.263 325.248 348.263 325.856C348.263 326.448 348.255 327.048 348.239 327.656C348.239 328.248 348.239 328.848 348.239 329.456C348.239 329.712 348.231 329.968 348.215 330.224C348.199 330.48 348.175 330.768 348.143 331.088C348.431 331.072 348.711 331.056 348.983 331.04C349.271 331.024 349.559 331.008 349.847 330.992V332H346.415ZM346.199 326.12C345.655 326.136 345.079 326.208 344.471 326.336C343.879 326.448 343.327 326.624 342.815 326.864C342.319 327.104 341.911 327.424 341.59 327.824C341.287 328.208 341.143 328.68 341.159 329.24C341.191 329.832 341.383 330.28 341.735 330.584C342.103 330.872 342.535 331.016 343.031 331.016C343.687 331.016 344.255 330.896 344.735 330.656C345.231 330.4 345.719 330.048 346.199 329.6C346.183 329.424 346.175 329.232 346.175 329.024C346.175 328.816 346.175 328.6 346.175 328.376C346.175 328.296 346.175 328.04 346.175 327.608C346.191 327.176 346.199 326.68 346.199 326.12ZM351.254 331.28C351.75 331.28 352.094 331.16 352.286 330.92C352.478 330.664 352.59 330.32 352.622 329.888C352.654 329.44 352.67 328.928 352.67 328.352V317C352.67 316.744 352.67 316.504 352.67 316.28C352.686 316.04 352.71 315.76 352.742 315.44C352.454 315.456 352.166 315.472 351.878 315.488C351.606 315.504 351.326 315.52 351.038 315.536V314.528C351.742 314.528 352.286 314.496 352.67 314.432C353.07 314.368 353.366 314.288 353.558 314.192C353.766 314.096 353.926 313.992 354.038 313.88H354.734L354.758 329.456C354.758 329.776 354.75 330.064 354.734 330.32C354.718 330.56 354.686 330.816 354.638 331.088C354.894 331.072 355.142 331.064 355.382 331.064C355.638 331.048 355.894 331.032 356.15 331.016V332H351.254V331.28ZM357.793 331.28C358.289 331.28 358.633 331.16 358.825 330.92C359.017 330.664 359.129 330.32 359.161 329.888C359.193 329.44 359.209 328.928 359.209 328.352V317C359.209 316.744 359.209 316.504 359.209 316.28C359.225 316.04 359.249 315.76 359.281 315.44C358.993 315.456 358.705 315.472 358.417 315.488C358.145 315.504 357.865 315.52 357.577 315.536V314.528C358.281 314.528 358.825 314.496 359.209 314.432C359.609 314.368 359.905 314.288 360.097 314.192C360.305 314.096 360.465 313.992 360.577 313.88H361.273L361.297 329.456C361.297 329.776 361.289 330.064 361.273 330.32C361.257 330.56 361.225 330.816 361.177 331.088C361.433 331.072 361.681 331.064 361.921 331.064C362.177 331.048 362.433 331.032 362.689 331.016V332H357.793V331.28ZM378.172 332C378.124 331.728 378.092 331.488 378.076 331.28C378.06 331.072 378.036 330.856 378.004 330.632C377.46 331.176 376.868 331.608 376.228 331.928C375.604 332.232 374.94 332.384 374.236 332.384C373.02 332.384 372.116 332.112 371.524 331.568C370.932 331.008 370.636 330.328 370.636 329.528C370.636 328.792 370.86 328.16 371.308 327.632C371.772 327.088 372.364 326.648 373.084 326.312C373.82 325.96 374.612 325.704 375.46 325.544C376.324 325.368 377.156 325.288 377.956 325.304V323.816C377.956 323.256 377.908 322.728 377.812 322.232C377.716 321.736 377.508 321.328 377.188 321.008C376.868 320.688 376.356 320.52 375.652 320.504C375.188 320.488 374.708 320.576 374.212 320.768C373.732 320.96 373.38 321.288 373.156 321.752C373.284 321.88 373.364 322.032 373.396 322.208C373.444 322.368 373.468 322.52 373.468 322.664C373.468 322.856 373.388 323.08 373.228 323.336C373.068 323.576 372.788 323.688 372.388 323.672C372.052 323.672 371.796 323.56 371.62 323.336C371.444 323.096 371.356 322.816 371.356 322.496C371.356 321.952 371.556 321.464 371.956 321.032C372.372 320.6 372.94 320.256 373.66 320C374.38 319.744 375.196 319.616 376.108 319.616C377.452 319.616 378.444 319.976 379.084 320.696C379.724 321.4 380.036 322.52 380.02 324.056C380.02 324.648 380.02 325.248 380.02 325.856C380.02 326.448 380.012 327.048 379.996 327.656C379.996 328.248 379.996 328.848 379.996 329.456C379.996 329.712 379.988 329.968 379.972 330.224C379.956 330.48 379.932 330.768 379.9 331.088C380.188 331.072 380.468 331.056 380.74 331.04C381.028 331.024 381.316 331.008 381.604 330.992V332H378.172ZM377.956 326.12C377.412 326.136 376.836 326.208 376.228 326.336C375.636 326.448 375.084 326.624 374.572 326.864C374.076 327.104 373.668 327.424 373.348 327.824C373.044 328.208 372.9 328.68 372.916 329.24C372.948 329.832 373.14 330.28 373.492 330.584C373.86 330.872 374.292 331.016 374.788 331.016C375.444 331.016 376.012 330.896 376.492 330.656C376.988 330.4 377.476 330.048 377.956 329.6C377.94 329.424 377.932 329.232 377.932 329.024C377.932 328.816 377.932 328.6 377.932 328.376C377.932 328.296 377.932 328.04 377.932 327.608C377.948 327.176 377.956 326.68 377.956 326.12ZM389.107 332.384C388.035 332.384 387.043 332.144 386.131 331.664C385.235 331.168 384.515 330.464 383.971 329.552C383.443 328.624 383.179 327.512 383.179 326.216C383.179 325.384 383.331 324.576 383.635 323.792C383.939 323.008 384.363 322.304 384.907 321.68C385.467 321.04 386.131 320.536 386.899 320.168C387.667 319.8 388.515 319.616 389.443 319.616C390.339 319.616 391.115 319.752 391.771 320.024C392.443 320.296 392.963 320.656 393.331 321.104C393.699 321.552 393.883 322.04 393.883 322.568C393.883 322.92 393.787 323.224 393.595 323.48C393.403 323.72 393.123 323.84 392.755 323.84C392.355 323.856 392.067 323.736 391.891 323.48C391.731 323.208 391.651 322.968 391.651 322.76C391.651 322.6 391.675 322.44 391.723 322.28C391.771 322.104 391.867 321.944 392.011 321.8C391.883 321.416 391.659 321.136 391.339 320.96C391.019 320.768 390.683 320.648 390.331 320.6C389.995 320.536 389.715 320.504 389.491 320.504C388.403 320.504 387.483 320.944 386.731 321.824C385.995 322.688 385.627 323.952 385.627 325.616C385.627 326.688 385.795 327.64 386.131 328.472C386.483 329.304 386.971 329.96 387.595 330.44C388.219 330.904 388.939 331.136 389.755 331.136C390.507 331.136 391.227 330.936 391.915 330.536C392.603 330.136 393.139 329.648 393.523 329.072L394.147 329.552C393.731 330.224 393.227 330.768 392.635 331.184C392.059 331.6 391.459 331.904 390.835 332.096C390.227 332.288 389.651 332.384 389.107 332.384ZM400.42 332.384C400.052 332.384 399.676 332.328 399.292 332.216C398.908 332.12 398.548 331.92 398.212 331.616C397.892 331.312 397.636 330.872 397.444 330.296C397.252 329.704 397.156 328.928 397.156 327.968L397.204 321.008L395.356 321.032V320C395.772 319.984 396.196 319.832 396.628 319.544C397.06 319.24 397.444 318.832 397.78 318.32C398.132 317.808 398.372 317.248 398.5 316.64H399.316V320H403.348V320.936L399.316 320.984L399.268 327.656C399.268 328.376 399.324 328.992 399.436 329.504C399.564 330 399.764 330.376 400.036 330.632C400.308 330.888 400.66 331.016 401.092 331.016C401.54 331.016 401.956 330.888 402.34 330.632C402.74 330.376 403.092 330.024 403.396 329.576L404.044 330.104C403.692 330.632 403.34 331.048 402.988 331.352C402.652 331.656 402.324 331.88 402.004 332.024C401.684 332.184 401.388 332.28 401.116 332.312C400.844 332.36 400.612 332.384 400.42 332.384ZM405.189 331.28C405.685 331.28 406.029 331.16 406.221 330.92C406.413 330.664 406.525 330.32 406.557 329.888C406.589 329.44 406.605 328.928 406.605 328.352V322.88C406.605 322.624 406.613 322.384 406.629 322.16C406.645 321.92 406.669 321.64 406.701 321.32C406.413 321.336 406.125 321.352 405.837 321.368C405.565 321.384 405.285 321.4 404.997 321.416V320.408C405.701 320.408 406.245 320.376 406.629 320.312C407.013 320.248 407.301 320.168 407.493 320.072C407.701 319.976 407.861 319.872 407.973 319.76H408.669V329.456C408.669 329.776 408.661 330.064 408.645 330.32C408.645 330.56 408.621 330.816 408.573 331.088C408.829 331.072 409.077 331.064 409.317 331.064C409.573 331.048 409.829 331.032 410.085 331.016V332H405.189V331.28ZM407.517 317.384C407.181 317.384 406.885 317.248 406.629 316.976C406.373 316.704 406.245 316.368 406.245 315.968C406.245 315.568 406.373 315.232 406.629 314.96C406.901 314.672 407.205 314.528 407.541 314.528C407.909 314.528 408.213 314.672 408.453 314.96C408.709 315.232 408.837 315.568 408.837 315.968C408.837 316.368 408.701 316.704 408.429 316.976C408.173 317.248 407.869 317.384 407.517 317.384ZM416.499 332.072L413.067 324.248C412.811 323.64 412.611 323.12 412.467 322.688C412.323 322.256 412.219 321.896 412.155 321.608C412.107 321.32 412.075 321.088 412.059 320.912L411.027 320.984V320H415.443V320.72C414.963 320.72 414.651 320.848 414.507 321.104C414.379 321.344 414.363 321.672 414.459 322.088C414.555 322.488 414.699 322.92 414.891 323.384L416.739 327.608C416.867 327.88 416.987 328.168 417.099 328.472C417.227 328.76 417.347 329.064 417.459 329.384H417.483C417.563 329.144 417.651 328.888 417.747 328.616C417.859 328.344 417.955 328.08 418.035 327.824L419.955 322.568C420.083 322.184 420.219 321.848 420.363 321.56C420.507 321.272 420.611 321.056 420.675 320.912L419.139 320.984V320H422.931V320.72C422.579 320.72 422.283 320.84 422.043 321.08C421.803 321.32 421.571 321.68 421.347 322.16C421.139 322.64 420.891 323.24 420.603 323.96L417.459 332.072H416.499ZM424.056 331.28C424.552 331.28 424.896 331.16 425.088 330.92C425.28 330.664 425.392 330.32 425.424 329.888C425.456 329.44 425.472 328.928 425.472 328.352V322.88C425.472 322.624 425.48 322.384 425.496 322.16C425.512 321.92 425.536 321.64 425.568 321.32C425.28 321.336 424.992 321.352 424.704 321.368C424.432 321.384 424.152 321.4 423.864 321.416V320.408C424.568 320.408 425.112 320.376 425.496 320.312C425.88 320.248 426.168 320.168 426.36 320.072C426.568 319.976 426.728 319.872 426.84 319.76H427.536V329.456C427.536 329.776 427.528 330.064 427.512 330.32C427.512 330.56 427.488 330.816 427.44 331.088C427.696 331.072 427.944 331.064 428.184 331.064C428.44 331.048 428.696 331.032 428.952 331.016V332H424.056V331.28ZM426.384 317.384C426.048 317.384 425.752 317.248 425.496 316.976C425.24 316.704 425.112 316.368 425.112 315.968C425.112 315.568 425.24 315.232 425.496 314.96C425.768 314.672 426.072 314.528 426.408 314.528C426.776 314.528 427.08 314.672 427.32 314.96C427.576 315.232 427.704 315.568 427.704 315.968C427.704 316.368 427.568 316.704 427.296 316.976C427.04 317.248 426.736 317.384 426.384 317.384ZM435.693 332.384C435.325 332.384 434.949 332.328 434.565 332.216C434.181 332.12 433.821 331.92 433.485 331.616C433.165 331.312 432.909 330.872 432.717 330.296C432.525 329.704 432.429 328.928 432.429 327.968L432.477 321.008L430.629 321.032V320C431.045 319.984 431.469 319.832 431.901 319.544C432.333 319.24 432.717 318.832 433.053 318.32C433.405 317.808 433.645 317.248 433.773 316.64H434.589V320H438.621V320.936L434.589 320.984L434.541 327.656C434.541 328.376 434.597 328.992 434.709 329.504C434.837 330 435.037 330.376 435.309 330.632C435.581 330.888 435.933 331.016 436.365 331.016C436.813 331.016 437.229 330.888 437.613 330.632C438.013 330.376 438.365 330.024 438.669 329.576L439.317 330.104C438.965 330.632 438.613 331.048 438.261 331.352C437.925 331.656 437.597 331.88 437.277 332.024C436.957 332.184 436.661 332.28 436.389 332.312C436.117 332.36 435.885 332.384 435.693 332.384ZM442.357 338.504C441.861 338.504 441.437 338.384 441.085 338.144C440.733 337.904 440.557 337.536 440.557 337.04C440.557 336.752 440.653 336.488 440.845 336.248C441.037 336.008 441.285 335.888 441.589 335.888C441.973 335.872 442.229 335.992 442.357 336.248C442.501 336.504 442.573 336.728 442.573 336.92C442.573 336.968 442.573 337.016 442.573 337.064C442.573 337.128 442.565 337.192 442.549 337.256C442.597 337.288 442.685 337.304 442.813 337.304C443.005 337.304 443.213 337.224 443.437 337.064C443.661 336.904 443.861 336.672 444.037 336.368C444.245 336.016 444.485 335.488 444.757 334.784C445.045 334.08 445.365 333.24 445.717 332.264L441.973 324.248C441.557 323.352 441.253 322.64 441.061 322.112C440.885 321.584 440.765 321.192 440.701 320.936L439.549 320.984V320H444.517V320.72H444.421C443.749 320.768 443.381 321.024 443.317 321.488C443.253 321.936 443.437 322.624 443.869 323.552L446.677 329.576C447.045 328.552 447.397 327.544 447.733 326.552C448.069 325.544 448.405 324.544 448.741 323.552C448.869 323.2 448.997 322.84 449.125 322.472C449.269 322.088 449.405 321.752 449.533 321.464C449.677 321.16 449.805 320.968 449.917 320.888L448.261 320.984V320H452.029V320.72C451.437 320.944 450.989 321.32 450.685 321.848C450.397 322.36 450.101 323.024 449.797 323.84L446.797 332.216C446.317 333.56 445.877 334.696 445.477 335.624C445.077 336.568 444.637 337.28 444.157 337.76C443.677 338.256 443.077 338.504 442.357 338.504Z" fill="#B6B4B4"/>
</svg>
